<svg preserveAspectRatio="none" overflow="visible" style="display: block;" width="19" height="19" viewBox="0 0 19 19" fill="none" xmlns="http://www.w3.org/2000/svg">
<g id="wallet-cards">
<path id="Vector" d="M2.375 7.125C2.375 6.70507 2.54181 6.30235 2.83875 6.00541C3.13568 5.70848 3.53841 5.54167 3.95833 5.54167H15.0417C15.4616 5.54167 15.8643 5.70848 16.1613 6.00541C16.4582 6.30235 16.625 6.70507 16.625 7.125M2.375 8.70833H4.75C5.38333 8.70833 6.01667 8.94583 6.4125 9.42083L7.28333 10.1333C8.55 11.4 10.5292 11.4 11.7958 10.1333L12.6667 9.42083C13.0625 9.025 13.6958 8.70833 14.3292 8.70833H16.625M3.95833 2.375H15.0417C15.9161 2.375 16.625 3.08388 16.625 3.95833V15.0417C16.625 15.9161 15.9161 16.625 15.0417 16.625H3.95833C3.08388 16.625 2.375 15.9161 2.375 15.0417V3.95833C2.375 3.08388 3.08388 2.375 3.95833 2.375Z" stroke="#681B33" stroke-width="2" stroke-linecap="round"/>
</g>
</svg>
